<svg xmlns="http://www.w3.org/2000/svg" xmlns:xlink="http://www.w3.org/1999/xlink" width="100" zoomAndPan="magnify" viewBox="0 0 75 74.999997" height="100" preserveAspectRatio="xMidYMid meet" version="1.2"><defs><clipPath id="cd0ba5456c"><path d="M 22 1.558594 L 56 1.558594 L 56 20 L 22 20 Z M 22 1.558594 "/></clipPath><clipPath id="2c7819cd74"><path d="M 31 47 L 66 47 L 66 73.558594 L 31 73.558594 Z M 31 47 "/></clipPath><clipPath id="dcf46c3a26"><path d="M 53 11 L 74.277344 11 L 74.277344 49 L 53 49 Z M 53 11 "/></clipPath><clipPath id="b76dd69658"><path d="M 0.777344 37 L 32 37 L 32 68 L 0.777344 68 Z M 0.777344 37 "/></clipPath></defs><g id="882994307f"><path style=" stroke:none;fill-rule:nonzero;fill:#872399;fill-opacity:1;" d="M 18.777344 7.972656 L 18.085938 7.78125 L 9.792969 5.417969 L 12.699219 10.628906 L 13.167969 11.46875 L 13.699219 12.421875 C 7.882812 18.265625 4.285156 26.28125 4.285156 35.148438 C 4.285156 35.871094 4.316406 36.589844 4.359375 37.308594 L 7.574219 32.460938 L 12.800781 35.929688 L 13.519531 36.414062 C 13.507812 36 13.492188 35.574219 13.492188 35.164062 C 13.492188 29.789062 15.34375 24.84375 18.425781 20.921875 L 20.554688 24.753906 L 22.992188 16.164062 L 23.109375 15.738281 L 24.828125 9.71875 Z M 18.777344 7.972656 "/><g clip-rule="nonzero" clip-path="url(#cd0ba5456c)"><path style=" stroke:none;fill-rule:nonzero;fill:#d786e3;fill-opacity:1;" d="M 54.867188 10.160156 L 54.675781 8.675781 L 53.796875 1.585938 L 50.710938 5.550781 L 50.34375 6.019531 C 46.144531 4.023438 41.460938 2.90625 36.527344 2.90625 C 31.492188 2.90625 26.707031 4.066406 22.449219 6.136719 L 28.527344 7.855469 L 26.808594 13.875 L 26.691406 14.300781 C 29.671875 12.875 33.019531 12.097656 36.542969 12.097656 C 39.347656 12.097656 42.035156 12.597656 44.515625 13.523438 L 44.472656 13.582031 L 40.214844 19.042969 L 49.523438 17.882812 L 50.652344 17.738281 L 55.734375 17.105469 Z M 54.867188 10.160156 "/></g><g clip-rule="nonzero" clip-path="url(#2c7819cd74)"><path style=" stroke:none;fill-rule:nonzero;fill:#9326a7;fill-opacity:1;" d="M 64.570312 49.90625 L 58.257812 52.945312 L 55.792969 47.835938 C 52.78125 52.402344 48.1875 55.824219 42.796875 57.335938 L 43.136719 51.328125 L 36.148438 57.585938 L 36.074219 57.644531 L 31.476562 61.753906 L 36.148438 66.980469 L 36.191406 67.039062 L 41.902344 73.410156 L 42.226562 67.449219 L 42.226562 67.378906 L 42.253906 66.878906 C 52.414062 65.042969 60.929688 58.449219 65.410156 49.480469 Z M 64.570312 49.90625 "/></g><g clip-rule="nonzero" clip-path="url(#dcf46c3a26)"><path style=" stroke:none;fill-rule:nonzero;fill:#551561;fill-opacity:1;" d="M 69.269531 39.832031 L 68.566406 39.582031 L 68.492188 39.554688 C 68.683594 38.117188 68.800781 36.648438 68.800781 35.148438 C 68.800781 25.78125 64.777344 17.324219 58.375 11.4375 L 58.566406 12.921875 L 59.433594 19.878906 L 54.351562 20.511719 C 57.640625 24.492188 59.609375 29.601562 59.609375 35.164062 C 59.609375 35.589844 59.59375 36.015625 59.566406 36.441406 L 53.339844 34.253906 L 57.40625 42.695312 L 57.65625 43.226562 L 60.125 48.347656 L 66.4375 45.308594 L 67.289062 44.898438 L 74.21875 41.566406 Z M 69.269531 39.832031 "/></g><g clip-rule="nonzero" clip-path="url(#b76dd69658)"><path style=" stroke:none;fill-rule:nonzero;fill:#551561;fill-opacity:1;" d="M 31.59375 67.023438 L 31.550781 66.964844 L 26.882812 61.738281 L 31.476562 57.628906 C 25.195312 56.21875 19.894531 52.238281 16.707031 46.851562 L 22.464844 45.691406 L 15.371094 40.992188 L 14.652344 40.507812 L 9.410156 37.058594 L 6.195312 41.902344 L 5.535156 42.902344 L 0.777344 50.109375 L 6.621094 48.921875 L 7.3125 48.773438 C 11.789062 58.332031 20.820312 65.367188 31.59375 67.023438 Z M 31.59375 67.023438 "/></g></g></svg>