<svg xmlns="http://www.w3.org/2000/svg" xmlns:xlink="http://www.w3.org/1999/xlink" width="100" zoomAndPan="magnify" viewBox="0 0 75 74.999997" height="100" preserveAspectRatio="xMidYMid meet" version="1.2"><defs><clipPath id="b216610ce7"><path d="M 38 13 L 74 13 L 74 62 L 38 62 Z M 38 13 "/></clipPath><clipPath id="d60d593e1e"><path d="M 34.683594 19.628906 L 50.867188 10.269531 L 76.96875 55.410156 L 60.78125 64.769531 Z M 34.683594 19.628906 "/></clipPath><clipPath id="6dee70db88"><path d="M 42.777344 14.949219 C 44.921875 13.710938 47.472656 13.371094 49.867188 14.011719 C 52.265625 14.652344 54.304688 16.21875 55.546875 18.363281 L 72.257812 47.269531 C 73.5 49.414062 73.835938 51.964844 73.195312 54.359375 C 72.554688 56.753906 70.992188 58.796875 68.84375 60.039062 C 66.699219 61.28125 64.148438 61.617188 61.753906 60.976562 C 59.359375 60.335938 57.316406 58.773438 56.074219 56.625 L 39.363281 27.722656 C 38.121094 25.574219 37.785156 23.023438 38.425781 20.628906 C 39.066406 18.234375 40.628906 16.191406 42.777344 14.949219 Z M 42.777344 14.949219 "/></clipPath><clipPath id="f804a8cda4"><path d="M 12 13 L 48 13 L 48 62 L 12 62 Z M 12 13 "/></clipPath><clipPath id="5c5f8c27e4"><path d="M 8.644531 19.628906 L 24.828125 10.269531 L 50.925781 55.410156 L 34.742188 64.769531 Z M 8.644531 19.628906 "/></clipPath><clipPath id="c8f0ba5cf0"><path d="M 16.738281 14.949219 C 18.882812 13.710938 21.433594 13.371094 23.828125 14.011719 C 26.222656 14.652344 28.265625 16.21875 29.507812 18.363281 L 46.21875 47.269531 C 47.460938 49.414062 47.796875 51.964844 47.15625 54.359375 C 46.515625 56.753906 44.953125 58.796875 42.804688 60.039062 C 40.660156 61.28125 38.109375 61.617188 35.714844 60.976562 C 33.316406 60.335938 31.277344 58.773438 30.035156 56.625 L 13.324219 27.722656 C 12.082031 25.574219 11.746094 23.023438 12.386719 20.628906 C 13.023438 18.234375 14.589844 16.191406 16.738281 14.949219 Z M 16.738281 14.949219 "/></clipPath><clipPath id="78c0216cdb"><path d="M 2 44.542969 L 25.605469 44.542969 L 25.605469 62 L 2 62 Z M 2 44.542969 "/></clipPath></defs><g id="6ca8eb84f8"><g clip-rule="nonzero" clip-path="url(#b216610ce7)"><g clip-rule="nonzero" clip-path="url(#d60d593e1e)"><g clip-rule="nonzero" clip-path="url(#6dee70db88)"><path style=" stroke:none;fill-rule:nonzero;fill:#013ca4;fill-opacity:1;" d="M 34.683594 19.628906 L 50.867188 10.269531 L 76.929688 55.347656 L 60.746094 64.707031 Z M 34.683594 19.628906 "/></g></g></g><g clip-rule="nonzero" clip-path="url(#f804a8cda4)"><g clip-rule="nonzero" clip-path="url(#5c5f8c27e4)"><g clip-rule="nonzero" clip-path="url(#c8f0ba5cf0)"><path style=" stroke:none;fill-rule:nonzero;fill:#0175e4;fill-opacity:1;" d="M 8.644531 19.628906 L 24.828125 10.269531 L 50.890625 55.347656 L 34.707031 64.707031 Z M 8.644531 19.628906 "/></g></g></g><g clip-rule="nonzero" clip-path="url(#78c0216cdb)"><path style=" stroke:none;fill-rule:nonzero;fill:#73b7ff;fill-opacity:1;" d="M 20.398438 50.667969 C 20.308594 50.230469 20.179688 49.808594 20.011719 49.394531 C 19.84375 48.984375 19.640625 48.589844 19.402344 48.214844 C 19.160156 47.839844 18.886719 47.488281 18.582031 47.164062 C 18.277344 46.839844 17.949219 46.546875 17.589844 46.28125 C 17.230469 46.019531 16.851562 45.789062 16.449219 45.59375 C 16.050781 45.402344 15.632812 45.246094 15.207031 45.128906 C 14.777344 45.007812 14.339844 44.933594 13.894531 44.894531 C 13.453125 44.855469 13.007812 44.859375 12.566406 44.90625 C 12.121094 44.949219 11.6875 45.03125 11.261719 45.15625 C 10.832031 45.28125 10.417969 45.441406 10.023438 45.644531 C 9.625 45.84375 9.25 46.078125 8.894531 46.347656 C 8.539062 46.617188 8.210938 46.914062 7.914062 47.246094 C 7.613281 47.574219 7.347656 47.925781 7.109375 48.304688 C 6.875 48.683594 6.679688 49.082031 6.515625 49.496094 C 6.355469 49.910156 6.234375 50.335938 6.148438 50.773438 C 6.066406 51.210938 6.023438 51.652344 6.023438 52.097656 C 6.023438 52.261719 6.027344 52.429688 6.042969 52.605469 C 5.488281 52.664062 4.964844 52.824219 4.46875 53.085938 C 3.976562 53.34375 3.546875 53.6875 3.1875 54.113281 C 2.824219 54.535156 2.554688 55.011719 2.375 55.542969 C 2.195312 56.070312 2.121094 56.613281 2.152344 57.171875 C 2.179688 57.730469 2.3125 58.261719 2.546875 58.765625 C 2.78125 59.273438 3.101562 59.71875 3.503906 60.101562 C 3.910156 60.488281 4.371094 60.78125 4.890625 60.988281 C 5.410156 61.195312 5.949219 61.296875 6.507812 61.296875 L 20.0625 61.296875 C 20.40625 61.296875 20.746094 61.265625 21.082031 61.199219 C 21.417969 61.132812 21.742188 61.035156 22.058594 60.90625 C 22.378906 60.777344 22.679688 60.621094 22.964844 60.433594 C 23.253906 60.246094 23.519531 60.035156 23.765625 59.796875 C 24.011719 59.558594 24.230469 59.300781 24.425781 59.019531 C 24.621094 58.738281 24.789062 58.441406 24.929688 58.128906 C 25.066406 57.816406 25.171875 57.492188 25.25 57.160156 C 25.324219 56.824219 25.367188 56.488281 25.378906 56.144531 C 25.390625 55.800781 25.367188 55.460938 25.3125 55.125 C 25.257812 54.789062 25.171875 54.457031 25.054688 54.136719 C 24.933594 53.816406 24.789062 53.507812 24.609375 53.214844 C 24.433594 52.921875 24.226562 52.652344 23.996094 52.398438 C 23.769531 52.144531 23.515625 51.914062 23.242188 51.710938 C 22.964844 51.507812 22.675781 51.332031 22.367188 51.183594 C 22.058594 51.035156 21.738281 50.917969 21.40625 50.828125 C 21.078125 50.742188 20.738281 50.6875 20.398438 50.667969 Z M 20.398438 50.667969 "/></g></g></svg>